<mxfile host="Electron" agent="Mozilla/5.0 (X11; Linux x86_64) AppleWebKit/537.36 (KHTML, like Gecko) draw.io/26.0.9 Chrome/128.0.6613.186 Electron/32.3.0 Safari/537.36" version="26.0.9" pages="5">
  <diagram name="flowchart(outdated)" id="zSmzCHSREuBNFH_SUCkv">
    <mxGraphModel dx="1434" dy="856" grid="1" gridSize="10" guides="1" tooltips="1" connect="1" arrows="1" fold="1" page="1" pageScale="1" pageWidth="850" pageHeight="1100" math="0" shadow="0">
      <root>
        <mxCell id="0" />
        <mxCell id="1" parent="0" />
        <mxCell id="2IDr4ffIs03sn7kJQmxd-6" style="edgeStyle=orthogonalEdgeStyle;rounded=0;orthogonalLoop=1;jettySize=auto;html=1;exitX=0.5;exitY=1;exitDx=0;exitDy=0;" parent="1" source="2IDr4ffIs03sn7kJQmxd-1" target="2IDr4ffIs03sn7kJQmxd-4" edge="1">
          <mxGeometry relative="1" as="geometry" />
        </mxCell>
        <mxCell id="2IDr4ffIs03sn7kJQmxd-1" value="Start" style="rounded=1;whiteSpace=wrap;html=1;" parent="1" vertex="1">
          <mxGeometry x="120" y="80" width="120" height="60" as="geometry" />
        </mxCell>
        <mxCell id="2IDr4ffIs03sn7kJQmxd-2" value="End" style="rounded=1;whiteSpace=wrap;html=1;" parent="1" vertex="1">
          <mxGeometry x="120" y="720" width="120" height="60" as="geometry" />
        </mxCell>
        <mxCell id="2IDr4ffIs03sn7kJQmxd-3" value="Game Flow" style="text;html=1;align=center;verticalAlign=middle;whiteSpace=wrap;rounded=0;fontSize=16;fontStyle=1" parent="1" vertex="1">
          <mxGeometry y="15" width="90" height="30" as="geometry" />
        </mxCell>
        <mxCell id="2IDr4ffIs03sn7kJQmxd-7" style="edgeStyle=orthogonalEdgeStyle;rounded=0;orthogonalLoop=1;jettySize=auto;html=1;exitX=0.5;exitY=1;exitDx=0;exitDy=0;" parent="1" source="2IDr4ffIs03sn7kJQmxd-4" target="2IDr4ffIs03sn7kJQmxd-5" edge="1">
          <mxGeometry relative="1" as="geometry" />
        </mxCell>
        <mxCell id="2IDr4ffIs03sn7kJQmxd-4" value="Shuffle Deck" style="rounded=0;whiteSpace=wrap;html=1;" parent="1" vertex="1">
          <mxGeometry x="120" y="200" width="120" height="60" as="geometry" />
        </mxCell>
        <mxCell id="2IDr4ffIs03sn7kJQmxd-9" style="edgeStyle=orthogonalEdgeStyle;rounded=0;orthogonalLoop=1;jettySize=auto;html=1;exitX=0.5;exitY=1;exitDx=0;exitDy=0;" parent="1" source="2IDr4ffIs03sn7kJQmxd-5" target="2IDr4ffIs03sn7kJQmxd-8" edge="1">
          <mxGeometry relative="1" as="geometry" />
        </mxCell>
        <mxCell id="2IDr4ffIs03sn7kJQmxd-5" value="Deal Cards" style="rounded=0;whiteSpace=wrap;html=1;" parent="1" vertex="1">
          <mxGeometry x="120" y="320" width="120" height="60" as="geometry" />
        </mxCell>
        <mxCell id="2IDr4ffIs03sn7kJQmxd-12" value="No" style="edgeStyle=orthogonalEdgeStyle;rounded=0;orthogonalLoop=1;jettySize=auto;html=1;exitX=1;exitY=0.5;exitDx=0;exitDy=0;entryX=0;entryY=0.5;entryDx=0;entryDy=0;" parent="1" source="2IDr4ffIs03sn7kJQmxd-8" target="2IDr4ffIs03sn7kJQmxd-11" edge="1">
          <mxGeometry x="-0.0526" y="10" relative="1" as="geometry">
            <mxPoint as="offset" />
          </mxGeometry>
        </mxCell>
        <mxCell id="2IDr4ffIs03sn7kJQmxd-18" value="Yes" style="edgeStyle=orthogonalEdgeStyle;rounded=0;orthogonalLoop=1;jettySize=auto;html=1;exitX=0.5;exitY=1;exitDx=0;exitDy=0;" parent="1" source="2IDr4ffIs03sn7kJQmxd-8" target="2IDr4ffIs03sn7kJQmxd-2" edge="1">
          <mxGeometry x="-0.2" y="-15" relative="1" as="geometry">
            <mxPoint as="offset" />
          </mxGeometry>
        </mxCell>
        <mxCell id="2IDr4ffIs03sn7kJQmxd-8" value="Someone won" style="rhombus;whiteSpace=wrap;html=1;" parent="1" vertex="1">
          <mxGeometry x="140" y="440" width="80" height="80" as="geometry" />
        </mxCell>
        <mxCell id="2IDr4ffIs03sn7kJQmxd-13" value="No" style="edgeStyle=orthogonalEdgeStyle;rounded=0;orthogonalLoop=1;jettySize=auto;html=1;exitX=1;exitY=0.5;exitDx=0;exitDy=0;entryX=0;entryY=0.5;entryDx=0;entryDy=0;" parent="1" source="2IDr4ffIs03sn7kJQmxd-11" target="2IDr4ffIs03sn7kJQmxd-19" edge="1">
          <mxGeometry y="10" relative="1" as="geometry">
            <mxPoint x="475" y="480" as="targetPoint" />
            <mxPoint as="offset" />
          </mxGeometry>
        </mxCell>
        <mxCell id="2IDr4ffIs03sn7kJQmxd-15" value="Yes" style="edgeStyle=orthogonalEdgeStyle;rounded=0;orthogonalLoop=1;jettySize=auto;html=1;exitX=0.5;exitY=1;exitDx=0;exitDy=0;" parent="1" source="2IDr4ffIs03sn7kJQmxd-11" target="2IDr4ffIs03sn7kJQmxd-14" edge="1">
          <mxGeometry y="20" relative="1" as="geometry">
            <mxPoint as="offset" />
          </mxGeometry>
        </mxCell>
        <mxCell id="2IDr4ffIs03sn7kJQmxd-11" value="Possible to lay out cards?" style="rhombus;whiteSpace=wrap;html=1;" parent="1" vertex="1">
          <mxGeometry x="315" y="440" width="80" height="80" as="geometry" />
        </mxCell>
        <mxCell id="2IDr4ffIs03sn7kJQmxd-16" style="edgeStyle=orthogonalEdgeStyle;rounded=0;orthogonalLoop=1;jettySize=auto;html=1;exitX=0;exitY=0.5;exitDx=0;exitDy=0;entryX=1;entryY=1;entryDx=0;entryDy=0;" parent="1" source="2IDr4ffIs03sn7kJQmxd-14" target="2IDr4ffIs03sn7kJQmxd-8" edge="1">
          <mxGeometry relative="1" as="geometry">
            <Array as="points">
              <mxPoint x="265" y="630" />
              <mxPoint x="265" y="520" />
              <mxPoint x="200" y="520" />
            </Array>
          </mxGeometry>
        </mxCell>
        <mxCell id="2IDr4ffIs03sn7kJQmxd-14" value="Lay out cards" style="rounded=0;whiteSpace=wrap;html=1;" parent="1" vertex="1">
          <mxGeometry x="295" y="600" width="120" height="60" as="geometry" />
        </mxCell>
        <mxCell id="2IDr4ffIs03sn7kJQmxd-19" value="Take card from deck" style="rounded=0;whiteSpace=wrap;html=1;" parent="1" vertex="1">
          <mxGeometry x="475" y="450" width="120" height="60" as="geometry" />
        </mxCell>
      </root>
    </mxGraphModel>
  </diagram>
  <diagram id="3Ev-0sDePRf3t3Fu-oRN" name="class_diagram(outdated)">
    <mxGraphModel dx="1195" dy="713" grid="1" gridSize="10" guides="1" tooltips="1" connect="1" arrows="1" fold="1" page="1" pageScale="1" pageWidth="850" pageHeight="1100" math="0" shadow="0">
      <root>
        <mxCell id="0" />
        <mxCell id="1" parent="0" />
        <mxCell id="4XarPU0ZT6cRAP-TzOpY-10" value="Deck" style="swimlane;fontStyle=1;align=center;verticalAlign=top;childLayout=stackLayout;horizontal=1;startSize=26;horizontalStack=0;resizeParent=1;resizeParentMax=0;resizeLast=0;collapsible=1;marginBottom=0;whiteSpace=wrap;html=1;" parent="1" vertex="1">
          <mxGeometry x="310" y="140" width="200" height="112" as="geometry" />
        </mxCell>
        <mxCell id="4XarPU0ZT6cRAP-TzOpY-11" value="+ field: type" style="text;strokeColor=none;fillColor=none;align=left;verticalAlign=top;spacingLeft=4;spacingRight=4;overflow=hidden;rotatable=0;points=[[0,0.5],[1,0.5]];portConstraint=eastwest;whiteSpace=wrap;html=1;" parent="4XarPU0ZT6cRAP-TzOpY-10" vertex="1">
          <mxGeometry y="26" width="200" height="26" as="geometry" />
        </mxCell>
        <mxCell id="4XarPU0ZT6cRAP-TzOpY-12" value="" style="line;strokeWidth=1;fillColor=none;align=left;verticalAlign=middle;spacingTop=-1;spacingLeft=3;spacingRight=3;rotatable=0;labelPosition=right;points=[];portConstraint=eastwest;strokeColor=inherit;" parent="4XarPU0ZT6cRAP-TzOpY-10" vertex="1">
          <mxGeometry y="52" width="200" height="8" as="geometry" />
        </mxCell>
        <mxCell id="4XarPU0ZT6cRAP-TzOpY-13" value="+ _init: void" style="text;strokeColor=none;fillColor=none;align=left;verticalAlign=top;spacingLeft=4;spacingRight=4;overflow=hidden;rotatable=0;points=[[0,0.5],[1,0.5]];portConstraint=eastwest;whiteSpace=wrap;html=1;" parent="4XarPU0ZT6cRAP-TzOpY-10" vertex="1">
          <mxGeometry y="60" width="200" height="26" as="geometry" />
        </mxCell>
        <mxCell id="4XarPU0ZT6cRAP-TzOpY-14" value="+ GetCardFromDeck(): CardInfo" style="text;strokeColor=none;fillColor=none;align=left;verticalAlign=top;spacingLeft=4;spacingRight=4;overflow=hidden;rotatable=0;points=[[0,0.5],[1,0.5]];portConstraint=eastwest;whiteSpace=wrap;html=1;" parent="4XarPU0ZT6cRAP-TzOpY-10" vertex="1">
          <mxGeometry y="86" width="200" height="26" as="geometry" />
        </mxCell>
        <mxCell id="4XarPU0ZT6cRAP-TzOpY-15" value="Card" style="swimlane;fontStyle=1;align=center;verticalAlign=top;childLayout=stackLayout;horizontal=1;startSize=26;horizontalStack=0;resizeParent=1;resizeParentMax=0;resizeLast=0;collapsible=1;marginBottom=0;whiteSpace=wrap;html=1;" parent="1" vertex="1">
          <mxGeometry x="660" y="320" width="240" height="86" as="geometry" />
        </mxCell>
        <mxCell id="4XarPU0ZT6cRAP-TzOpY-16" value="+ field: type" style="text;strokeColor=none;fillColor=none;align=left;verticalAlign=top;spacingLeft=4;spacingRight=4;overflow=hidden;rotatable=0;points=[[0,0.5],[1,0.5]];portConstraint=eastwest;whiteSpace=wrap;html=1;" parent="4XarPU0ZT6cRAP-TzOpY-15" vertex="1">
          <mxGeometry y="26" width="240" height="26" as="geometry" />
        </mxCell>
        <mxCell id="4XarPU0ZT6cRAP-TzOpY-17" value="" style="line;strokeWidth=1;fillColor=none;align=left;verticalAlign=middle;spacingTop=-1;spacingLeft=3;spacingRight=3;rotatable=0;labelPosition=right;points=[];portConstraint=eastwest;strokeColor=inherit;" parent="4XarPU0ZT6cRAP-TzOpY-15" vertex="1">
          <mxGeometry y="52" width="240" height="8" as="geometry" />
        </mxCell>
        <mxCell id="4XarPU0ZT6cRAP-TzOpY-19" value="+ SetCardType(cardInfo: CardInfo): void" style="text;strokeColor=none;fillColor=none;align=left;verticalAlign=top;spacingLeft=4;spacingRight=4;overflow=hidden;rotatable=0;points=[[0,0.5],[1,0.5]];portConstraint=eastwest;whiteSpace=wrap;html=1;" parent="4XarPU0ZT6cRAP-TzOpY-15" vertex="1">
          <mxGeometry y="60" width="240" height="26" as="geometry" />
        </mxCell>
        <mxCell id="4XarPU0ZT6cRAP-TzOpY-20" value="Player" style="swimlane;fontStyle=1;align=center;verticalAlign=top;childLayout=stackLayout;horizontal=1;startSize=26;horizontalStack=0;resizeParent=1;resizeParentMax=0;resizeLast=0;collapsible=1;marginBottom=0;whiteSpace=wrap;html=1;" parent="1" vertex="1">
          <mxGeometry x="630" y="140" width="300" height="86" as="geometry" />
        </mxCell>
        <mxCell id="4XarPU0ZT6cRAP-TzOpY-21" value="+ field: type" style="text;strokeColor=none;fillColor=none;align=left;verticalAlign=top;spacingLeft=4;spacingRight=4;overflow=hidden;rotatable=0;points=[[0,0.5],[1,0.5]];portConstraint=eastwest;whiteSpace=wrap;html=1;" parent="4XarPU0ZT6cRAP-TzOpY-20" vertex="1">
          <mxGeometry y="26" width="300" height="26" as="geometry" />
        </mxCell>
        <mxCell id="4XarPU0ZT6cRAP-TzOpY-22" value="" style="line;strokeWidth=1;fillColor=none;align=left;verticalAlign=middle;spacingTop=-1;spacingLeft=3;spacingRight=3;rotatable=0;labelPosition=right;points=[];portConstraint=eastwest;strokeColor=inherit;" parent="4XarPU0ZT6cRAP-TzOpY-20" vertex="1">
          <mxGeometry y="52" width="300" height="8" as="geometry" />
        </mxCell>
        <mxCell id="4XarPU0ZT6cRAP-TzOpY-23" value="+ AddCard(cardInfo: CardInfo, position: Vector2): void" style="text;strokeColor=none;fillColor=none;align=left;verticalAlign=top;spacingLeft=4;spacingRight=4;overflow=hidden;rotatable=0;points=[[0,0.5],[1,0.5]];portConstraint=eastwest;whiteSpace=wrap;html=1;" parent="4XarPU0ZT6cRAP-TzOpY-20" vertex="1">
          <mxGeometry y="60" width="300" height="26" as="geometry" />
        </mxCell>
        <mxCell id="4XarPU0ZT6cRAP-TzOpY-24" value="Main" style="swimlane;fontStyle=1;align=center;verticalAlign=top;childLayout=stackLayout;horizontal=1;startSize=26;horizontalStack=0;resizeParent=1;resizeParentMax=0;resizeLast=0;collapsible=1;marginBottom=0;whiteSpace=wrap;html=1;" parent="1" vertex="1">
          <mxGeometry x="445" y="10" width="300" height="86" as="geometry" />
        </mxCell>
        <mxCell id="4XarPU0ZT6cRAP-TzOpY-25" value="+ field: type" style="text;strokeColor=none;fillColor=none;align=left;verticalAlign=top;spacingLeft=4;spacingRight=4;overflow=hidden;rotatable=0;points=[[0,0.5],[1,0.5]];portConstraint=eastwest;whiteSpace=wrap;html=1;" parent="4XarPU0ZT6cRAP-TzOpY-24" vertex="1">
          <mxGeometry y="26" width="300" height="26" as="geometry" />
        </mxCell>
        <mxCell id="4XarPU0ZT6cRAP-TzOpY-26" value="" style="line;strokeWidth=1;fillColor=none;align=left;verticalAlign=middle;spacingTop=-1;spacingLeft=3;spacingRight=3;rotatable=0;labelPosition=right;points=[];portConstraint=eastwest;strokeColor=inherit;" parent="4XarPU0ZT6cRAP-TzOpY-24" vertex="1">
          <mxGeometry y="52" width="300" height="8" as="geometry" />
        </mxCell>
        <mxCell id="4XarPU0ZT6cRAP-TzOpY-27" value="+ Lol()" style="text;strokeColor=none;fillColor=none;align=left;verticalAlign=top;spacingLeft=4;spacingRight=4;overflow=hidden;rotatable=0;points=[[0,0.5],[1,0.5]];portConstraint=eastwest;whiteSpace=wrap;html=1;" parent="4XarPU0ZT6cRAP-TzOpY-24" vertex="1">
          <mxGeometry y="60" width="300" height="26" as="geometry" />
        </mxCell>
        <mxCell id="-R6qdCPAcVNeT1KJ9jc4-1" style="edgeStyle=orthogonalEdgeStyle;rounded=0;orthogonalLoop=1;jettySize=auto;html=1;exitX=0;exitY=0.5;exitDx=0;exitDy=0;entryX=0.5;entryY=0;entryDx=0;entryDy=0;" parent="1" source="4XarPU0ZT6cRAP-TzOpY-25" target="4XarPU0ZT6cRAP-TzOpY-10" edge="1">
          <mxGeometry relative="1" as="geometry" />
        </mxCell>
        <mxCell id="-R6qdCPAcVNeT1KJ9jc4-2" style="edgeStyle=orthogonalEdgeStyle;rounded=0;orthogonalLoop=1;jettySize=auto;html=1;exitX=1;exitY=0.5;exitDx=0;exitDy=0;" parent="1" source="4XarPU0ZT6cRAP-TzOpY-25" target="4XarPU0ZT6cRAP-TzOpY-20" edge="1">
          <mxGeometry relative="1" as="geometry" />
        </mxCell>
        <mxCell id="-R6qdCPAcVNeT1KJ9jc4-3" style="edgeStyle=orthogonalEdgeStyle;rounded=0;orthogonalLoop=1;jettySize=auto;html=1;exitX=0.5;exitY=0.962;exitDx=0;exitDy=0;exitPerimeter=0;entryX=0.5;entryY=0;entryDx=0;entryDy=0;" parent="1" source="4XarPU0ZT6cRAP-TzOpY-23" target="4XarPU0ZT6cRAP-TzOpY-15" edge="1">
          <mxGeometry relative="1" as="geometry">
            <mxPoint x="430" y="336" as="sourcePoint" />
            <mxPoint x="545" y="451" as="targetPoint" />
          </mxGeometry>
        </mxCell>
        <mxCell id="-R6qdCPAcVNeT1KJ9jc4-4" value="&lt;div&gt;&amp;lt;&amp;lt;Enumeration&amp;gt;&amp;gt;&lt;/div&gt;Suit" style="swimlane;fontStyle=0;childLayout=stackLayout;horizontal=1;startSize=26;fillColor=none;horizontalStack=0;resizeParent=1;resizeParentMax=0;resizeLast=0;collapsible=1;marginBottom=0;whiteSpace=wrap;html=1;" parent="1" vertex="1">
          <mxGeometry y="10" width="140" height="156" as="geometry" />
        </mxCell>
        <mxCell id="-R6qdCPAcVNeT1KJ9jc4-5" value="NONE" style="text;strokeColor=none;fillColor=none;align=left;verticalAlign=top;spacingLeft=4;spacingRight=4;overflow=hidden;rotatable=0;points=[[0,0.5],[1,0.5]];portConstraint=eastwest;whiteSpace=wrap;html=1;" parent="-R6qdCPAcVNeT1KJ9jc4-4" vertex="1">
          <mxGeometry y="26" width="140" height="26" as="geometry" />
        </mxCell>
        <mxCell id="-R6qdCPAcVNeT1KJ9jc4-6" value="HEARTS" style="text;strokeColor=none;fillColor=none;align=left;verticalAlign=top;spacingLeft=4;spacingRight=4;overflow=hidden;rotatable=0;points=[[0,0.5],[1,0.5]];portConstraint=eastwest;whiteSpace=wrap;html=1;" parent="-R6qdCPAcVNeT1KJ9jc4-4" vertex="1">
          <mxGeometry y="52" width="140" height="26" as="geometry" />
        </mxCell>
        <mxCell id="-R6qdCPAcVNeT1KJ9jc4-12" value="CLUBS" style="text;strokeColor=none;fillColor=none;align=left;verticalAlign=top;spacingLeft=4;spacingRight=4;overflow=hidden;rotatable=0;points=[[0,0.5],[1,0.5]];portConstraint=eastwest;whiteSpace=wrap;html=1;" parent="-R6qdCPAcVNeT1KJ9jc4-4" vertex="1">
          <mxGeometry y="78" width="140" height="26" as="geometry" />
        </mxCell>
        <mxCell id="-R6qdCPAcVNeT1KJ9jc4-7" value="DIAMONDS" style="text;strokeColor=none;fillColor=none;align=left;verticalAlign=top;spacingLeft=4;spacingRight=4;overflow=hidden;rotatable=0;points=[[0,0.5],[1,0.5]];portConstraint=eastwest;whiteSpace=wrap;html=1;" parent="-R6qdCPAcVNeT1KJ9jc4-4" vertex="1">
          <mxGeometry y="104" width="140" height="26" as="geometry" />
        </mxCell>
        <mxCell id="-R6qdCPAcVNeT1KJ9jc4-13" value="SPADES" style="text;strokeColor=none;fillColor=none;align=left;verticalAlign=top;spacingLeft=4;spacingRight=4;overflow=hidden;rotatable=0;points=[[0,0.5],[1,0.5]];portConstraint=eastwest;whiteSpace=wrap;html=1;" parent="-R6qdCPAcVNeT1KJ9jc4-4" vertex="1">
          <mxGeometry y="130" width="140" height="26" as="geometry" />
        </mxCell>
        <mxCell id="-R6qdCPAcVNeT1KJ9jc4-8" value="&lt;div&gt;&amp;lt;&amp;lt;Enumeration&amp;gt;&amp;gt;&lt;/div&gt;&lt;div&gt;Symbol&lt;/div&gt;" style="swimlane;fontStyle=0;childLayout=stackLayout;horizontal=1;startSize=26;fillColor=none;horizontalStack=0;resizeParent=1;resizeParentMax=0;resizeLast=0;collapsible=1;marginBottom=0;whiteSpace=wrap;html=1;" parent="1" vertex="1">
          <mxGeometry x="150" y="10" width="140" height="416" as="geometry" />
        </mxCell>
        <mxCell id="-R6qdCPAcVNeT1KJ9jc4-9" value="NONE" style="text;strokeColor=none;fillColor=none;align=left;verticalAlign=top;spacingLeft=4;spacingRight=4;overflow=hidden;rotatable=0;points=[[0,0.5],[1,0.5]];portConstraint=eastwest;whiteSpace=wrap;html=1;" parent="-R6qdCPAcVNeT1KJ9jc4-8" vertex="1">
          <mxGeometry y="26" width="140" height="26" as="geometry" />
        </mxCell>
        <mxCell id="-R6qdCPAcVNeT1KJ9jc4-10" value="TWO" style="text;strokeColor=none;fillColor=none;align=left;verticalAlign=top;spacingLeft=4;spacingRight=4;overflow=hidden;rotatable=0;points=[[0,0.5],[1,0.5]];portConstraint=eastwest;whiteSpace=wrap;html=1;" parent="-R6qdCPAcVNeT1KJ9jc4-8" vertex="1">
          <mxGeometry y="52" width="140" height="26" as="geometry" />
        </mxCell>
        <mxCell id="-R6qdCPAcVNeT1KJ9jc4-14" value="THREE" style="text;strokeColor=none;fillColor=none;align=left;verticalAlign=top;spacingLeft=4;spacingRight=4;overflow=hidden;rotatable=0;points=[[0,0.5],[1,0.5]];portConstraint=eastwest;whiteSpace=wrap;html=1;" parent="-R6qdCPAcVNeT1KJ9jc4-8" vertex="1">
          <mxGeometry y="78" width="140" height="26" as="geometry" />
        </mxCell>
        <mxCell id="-R6qdCPAcVNeT1KJ9jc4-16" value="FOUR" style="text;strokeColor=none;fillColor=none;align=left;verticalAlign=top;spacingLeft=4;spacingRight=4;overflow=hidden;rotatable=0;points=[[0,0.5],[1,0.5]];portConstraint=eastwest;whiteSpace=wrap;html=1;" parent="-R6qdCPAcVNeT1KJ9jc4-8" vertex="1">
          <mxGeometry y="104" width="140" height="26" as="geometry" />
        </mxCell>
        <mxCell id="-R6qdCPAcVNeT1KJ9jc4-15" value="FIVE" style="text;strokeColor=none;fillColor=none;align=left;verticalAlign=top;spacingLeft=4;spacingRight=4;overflow=hidden;rotatable=0;points=[[0,0.5],[1,0.5]];portConstraint=eastwest;whiteSpace=wrap;html=1;" parent="-R6qdCPAcVNeT1KJ9jc4-8" vertex="1">
          <mxGeometry y="130" width="140" height="26" as="geometry" />
        </mxCell>
        <mxCell id="-R6qdCPAcVNeT1KJ9jc4-20" value="SIX" style="text;strokeColor=none;fillColor=none;align=left;verticalAlign=top;spacingLeft=4;spacingRight=4;overflow=hidden;rotatable=0;points=[[0,0.5],[1,0.5]];portConstraint=eastwest;whiteSpace=wrap;html=1;" parent="-R6qdCPAcVNeT1KJ9jc4-8" vertex="1">
          <mxGeometry y="156" width="140" height="26" as="geometry" />
        </mxCell>
        <mxCell id="-R6qdCPAcVNeT1KJ9jc4-22" value="SEVEN" style="text;strokeColor=none;fillColor=none;align=left;verticalAlign=top;spacingLeft=4;spacingRight=4;overflow=hidden;rotatable=0;points=[[0,0.5],[1,0.5]];portConstraint=eastwest;whiteSpace=wrap;html=1;" parent="-R6qdCPAcVNeT1KJ9jc4-8" vertex="1">
          <mxGeometry y="182" width="140" height="26" as="geometry" />
        </mxCell>
        <mxCell id="-R6qdCPAcVNeT1KJ9jc4-21" value="EIGHT" style="text;strokeColor=none;fillColor=none;align=left;verticalAlign=top;spacingLeft=4;spacingRight=4;overflow=hidden;rotatable=0;points=[[0,0.5],[1,0.5]];portConstraint=eastwest;whiteSpace=wrap;html=1;" parent="-R6qdCPAcVNeT1KJ9jc4-8" vertex="1">
          <mxGeometry y="208" width="140" height="26" as="geometry" />
        </mxCell>
        <mxCell id="-R6qdCPAcVNeT1KJ9jc4-17" value="NINE" style="text;strokeColor=none;fillColor=none;align=left;verticalAlign=top;spacingLeft=4;spacingRight=4;overflow=hidden;rotatable=0;points=[[0,0.5],[1,0.5]];portConstraint=eastwest;whiteSpace=wrap;html=1;" parent="-R6qdCPAcVNeT1KJ9jc4-8" vertex="1">
          <mxGeometry y="234" width="140" height="26" as="geometry" />
        </mxCell>
        <mxCell id="-R6qdCPAcVNeT1KJ9jc4-23" value="TEN" style="text;strokeColor=none;fillColor=none;align=left;verticalAlign=top;spacingLeft=4;spacingRight=4;overflow=hidden;rotatable=0;points=[[0,0.5],[1,0.5]];portConstraint=eastwest;whiteSpace=wrap;html=1;" parent="-R6qdCPAcVNeT1KJ9jc4-8" vertex="1">
          <mxGeometry y="260" width="140" height="26" as="geometry" />
        </mxCell>
        <mxCell id="-R6qdCPAcVNeT1KJ9jc4-25" value="JACK" style="text;strokeColor=none;fillColor=none;align=left;verticalAlign=top;spacingLeft=4;spacingRight=4;overflow=hidden;rotatable=0;points=[[0,0.5],[1,0.5]];portConstraint=eastwest;whiteSpace=wrap;html=1;" parent="-R6qdCPAcVNeT1KJ9jc4-8" vertex="1">
          <mxGeometry y="286" width="140" height="26" as="geometry" />
        </mxCell>
        <mxCell id="-R6qdCPAcVNeT1KJ9jc4-24" value="QUEEN" style="text;strokeColor=none;fillColor=none;align=left;verticalAlign=top;spacingLeft=4;spacingRight=4;overflow=hidden;rotatable=0;points=[[0,0.5],[1,0.5]];portConstraint=eastwest;whiteSpace=wrap;html=1;" parent="-R6qdCPAcVNeT1KJ9jc4-8" vertex="1">
          <mxGeometry y="312" width="140" height="26" as="geometry" />
        </mxCell>
        <mxCell id="-R6qdCPAcVNeT1KJ9jc4-19" value="KING" style="text;strokeColor=none;fillColor=none;align=left;verticalAlign=top;spacingLeft=4;spacingRight=4;overflow=hidden;rotatable=0;points=[[0,0.5],[1,0.5]];portConstraint=eastwest;whiteSpace=wrap;html=1;" parent="-R6qdCPAcVNeT1KJ9jc4-8" vertex="1">
          <mxGeometry y="338" width="140" height="26" as="geometry" />
        </mxCell>
        <mxCell id="-R6qdCPAcVNeT1KJ9jc4-18" value="ACE" style="text;strokeColor=none;fillColor=none;align=left;verticalAlign=top;spacingLeft=4;spacingRight=4;overflow=hidden;rotatable=0;points=[[0,0.5],[1,0.5]];portConstraint=eastwest;whiteSpace=wrap;html=1;" parent="-R6qdCPAcVNeT1KJ9jc4-8" vertex="1">
          <mxGeometry y="364" width="140" height="26" as="geometry" />
        </mxCell>
        <mxCell id="-R6qdCPAcVNeT1KJ9jc4-11" value="JOKER" style="text;strokeColor=none;fillColor=none;align=left;verticalAlign=top;spacingLeft=4;spacingRight=4;overflow=hidden;rotatable=0;points=[[0,0.5],[1,0.5]];portConstraint=eastwest;whiteSpace=wrap;html=1;" parent="-R6qdCPAcVNeT1KJ9jc4-8" vertex="1">
          <mxGeometry y="390" width="140" height="26" as="geometry" />
        </mxCell>
        <mxCell id="-R6qdCPAcVNeT1KJ9jc4-26" value="CardInfo" style="swimlane;fontStyle=1;childLayout=stackLayout;horizontal=1;startSize=26;fillColor=none;horizontalStack=0;resizeParent=1;resizeParentMax=0;resizeLast=0;collapsible=1;marginBottom=0;whiteSpace=wrap;html=1;" parent="1" vertex="1">
          <mxGeometry x="340" y="320" width="140" height="78" as="geometry" />
        </mxCell>
        <mxCell id="-R6qdCPAcVNeT1KJ9jc4-27" value="+ _suit: Suit" style="text;strokeColor=none;fillColor=none;align=left;verticalAlign=top;spacingLeft=4;spacingRight=4;overflow=hidden;rotatable=0;points=[[0,0.5],[1,0.5]];portConstraint=eastwest;whiteSpace=wrap;html=1;" parent="-R6qdCPAcVNeT1KJ9jc4-26" vertex="1">
          <mxGeometry y="26" width="140" height="26" as="geometry" />
        </mxCell>
        <mxCell id="-R6qdCPAcVNeT1KJ9jc4-28" value="+ _symbol: Symbol" style="text;strokeColor=none;fillColor=none;align=left;verticalAlign=top;spacingLeft=4;spacingRight=4;overflow=hidden;rotatable=0;points=[[0,0.5],[1,0.5]];portConstraint=eastwest;whiteSpace=wrap;html=1;" parent="-R6qdCPAcVNeT1KJ9jc4-26" vertex="1">
          <mxGeometry y="52" width="140" height="26" as="geometry" />
        </mxCell>
        <mxCell id="-R6qdCPAcVNeT1KJ9jc4-30" style="edgeStyle=orthogonalEdgeStyle;rounded=0;orthogonalLoop=1;jettySize=auto;html=1;" parent="1" source="4XarPU0ZT6cRAP-TzOpY-10" target="-R6qdCPAcVNeT1KJ9jc4-26" edge="1">
          <mxGeometry relative="1" as="geometry">
            <mxPoint x="465" y="340" as="sourcePoint" />
            <mxPoint x="430" y="455" as="targetPoint" />
          </mxGeometry>
        </mxCell>
      </root>
    </mxGraphModel>
  </diagram>
  <diagram id="7SyO6U3oN2J-1Ru51-LM" name="player_state_machine">
    <mxGraphModel dx="1434" dy="856" grid="1" gridSize="10" guides="1" tooltips="1" connect="1" arrows="1" fold="1" page="1" pageScale="1" pageWidth="850" pageHeight="1100" math="0" shadow="0">
      <root>
        <mxCell id="0" />
        <mxCell id="1" parent="0" />
        <mxCell id="8MFkBoVP0yaM3WH4EdKF-1" value="Player State Machine" style="text;html=1;align=center;verticalAlign=middle;whiteSpace=wrap;rounded=0;fontSize=16;fontStyle=1" parent="1" vertex="1">
          <mxGeometry y="10" width="170" height="30" as="geometry" />
        </mxCell>
        <mxCell id="8MFkBoVP0yaM3WH4EdKF-2" value="Idle" style="shape=rect;rounded=1;html=1;whiteSpace=wrap;align=center;" parent="1" vertex="1">
          <mxGeometry x="35" y="80" width="100" height="40" as="geometry" />
        </mxCell>
        <mxCell id="8MFkBoVP0yaM3WH4EdKF-3" value="TurnIsOver" style="shape=rect;rounded=1;html=1;whiteSpace=wrap;align=center;" parent="1" vertex="1">
          <mxGeometry x="35" y="320" width="100" height="40" as="geometry" />
        </mxCell>
        <mxCell id="8MFkBoVP0yaM3WH4EdKF-8" value="LayingCards" style="shape=rect;rounded=1;html=1;whiteSpace=wrap;align=center;" parent="1" vertex="1">
          <mxGeometry x="410" y="320" width="100" height="40" as="geometry" />
        </mxCell>
        <mxCell id="8MFkBoVP0yaM3WH4EdKF-9" value="player has gotten turn" style="edgeStyle=none;html=1;endArrow=open;endSize=12;strokeWidth=3;verticalAlign=bottom;rounded=0;exitX=1;exitY=0.5;exitDx=0;exitDy=0;entryX=0;entryY=0.25;entryDx=0;entryDy=0;entryPerimeter=0;" parent="1" source="8MFkBoVP0yaM3WH4EdKF-2" target="8MFkBoVP0yaM3WH4EdKF-11" edge="1">
          <mxGeometry width="160" relative="1" as="geometry">
            <mxPoint x="170" y="99.5" as="sourcePoint" />
            <mxPoint x="350" y="100" as="targetPoint" />
          </mxGeometry>
        </mxCell>
        <mxCell id="8MFkBoVP0yaM3WH4EdKF-11" value="&lt;p style=&quot;margin:0px;margin-top:4px;text-align:center;&quot;&gt;PickingCards&lt;/p&gt;&lt;hr&gt;&lt;p&gt;&lt;/p&gt;&lt;p style=&quot;margin:0px;margin-left:8px;text-align:left;&quot;&gt;entry / entryActivity&lt;br&gt;do / CardPickedFromDeck&lt;/p&gt;&lt;p style=&quot;margin:0px;margin-left:8px;text-align:left;&quot;&gt;&lt;span style=&quot;white-space: pre;&quot;&gt;&#x9;&lt;/span&gt;CardPickedFromHeap&lt;br&gt;exit / exitActivity&lt;/p&gt;" style="shape=mxgraph.sysml.simpleState;html=1;overflow=fill;whiteSpace=wrap;align=center;" parent="1" vertex="1">
          <mxGeometry x="360" y="80" width="200" height="100" as="geometry" />
        </mxCell>
        <mxCell id="8MFkBoVP0yaM3WH4EdKF-13" value="Picked card [fromDeck or fromHeap]/" style="edgeStyle=none;html=1;endArrow=open;endSize=12;strokeWidth=3;verticalAlign=bottom;rounded=0;exitX=0.5;exitY=1;exitDx=0;exitDy=0;exitPerimeter=0;entryX=0.5;entryY=0;entryDx=0;entryDy=0;" parent="1" source="8MFkBoVP0yaM3WH4EdKF-11" target="8MFkBoVP0yaM3WH4EdKF-8" edge="1">
          <mxGeometry y="100" width="160" relative="1" as="geometry">
            <mxPoint x="500" y="250" as="sourcePoint" />
            <mxPoint x="660" y="250" as="targetPoint" />
            <mxPoint as="offset" />
          </mxGeometry>
        </mxCell>
        <mxCell id="8MFkBoVP0yaM3WH4EdKF-14" value="Turn end button pressed" style="edgeStyle=none;html=1;endArrow=open;endSize=12;strokeWidth=3;verticalAlign=bottom;rounded=0;exitX=0;exitY=0.5;exitDx=0;exitDy=0;entryX=1;entryY=0.5;entryDx=0;entryDy=0;" parent="1" source="8MFkBoVP0yaM3WH4EdKF-8" target="8MFkBoVP0yaM3WH4EdKF-3" edge="1">
          <mxGeometry width="160" relative="1" as="geometry">
            <mxPoint x="190" y="280" as="sourcePoint" />
            <mxPoint x="350" y="280" as="targetPoint" />
          </mxGeometry>
        </mxCell>
        <mxCell id="8MFkBoVP0yaM3WH4EdKF-15" value="Handling turns" style="edgeStyle=none;html=1;endArrow=open;endSize=12;strokeWidth=3;verticalAlign=bottom;rounded=0;exitX=0.5;exitY=0;exitDx=0;exitDy=0;entryX=0.5;entryY=1;entryDx=0;entryDy=0;" parent="1" source="8MFkBoVP0yaM3WH4EdKF-3" target="8MFkBoVP0yaM3WH4EdKF-2" edge="1">
          <mxGeometry width="160" relative="1" as="geometry">
            <mxPoint x="70" y="290" as="sourcePoint" />
            <mxPoint x="230" y="290" as="targetPoint" />
          </mxGeometry>
        </mxCell>
      </root>
    </mxGraphModel>
  </diagram>
  <diagram id="0RN7PsdVVb_Af9ERJV1p" name="node_structure">
    <mxGraphModel dx="1434" dy="856" grid="1" gridSize="10" guides="1" tooltips="1" connect="1" arrows="1" fold="1" page="1" pageScale="1" pageWidth="850" pageHeight="1100" math="0" shadow="0">
      <root>
        <mxCell id="0" />
        <mxCell id="1" parent="0" />
        <mxCell id="jeVgCDS7FtafrvL2IPcb-13" style="edgeStyle=orthogonalEdgeStyle;rounded=0;orthogonalLoop=1;jettySize=auto;html=1;exitX=0.5;exitY=1;exitDx=0;exitDy=0;entryX=0;entryY=0.5;entryDx=0;entryDy=0;" edge="1" parent="1" source="jeVgCDS7FtafrvL2IPcb-1" target="jeVgCDS7FtafrvL2IPcb-2">
          <mxGeometry relative="1" as="geometry" />
        </mxCell>
        <mxCell id="jeVgCDS7FtafrvL2IPcb-14" style="edgeStyle=orthogonalEdgeStyle;rounded=0;orthogonalLoop=1;jettySize=auto;html=1;exitX=0.5;exitY=1;exitDx=0;exitDy=0;entryX=0;entryY=0.5;entryDx=0;entryDy=0;" edge="1" parent="1" source="jeVgCDS7FtafrvL2IPcb-1" target="jeVgCDS7FtafrvL2IPcb-8">
          <mxGeometry relative="1" as="geometry" />
        </mxCell>
        <mxCell id="jeVgCDS7FtafrvL2IPcb-15" style="edgeStyle=orthogonalEdgeStyle;rounded=0;orthogonalLoop=1;jettySize=auto;html=1;exitX=0.5;exitY=1;exitDx=0;exitDy=0;entryX=0;entryY=0.5;entryDx=0;entryDy=0;" edge="1" parent="1" source="jeVgCDS7FtafrvL2IPcb-1" target="jeVgCDS7FtafrvL2IPcb-9">
          <mxGeometry relative="1" as="geometry" />
        </mxCell>
        <mxCell id="jeVgCDS7FtafrvL2IPcb-16" style="edgeStyle=orthogonalEdgeStyle;rounded=0;orthogonalLoop=1;jettySize=auto;html=1;exitX=0.5;exitY=1;exitDx=0;exitDy=0;entryX=0;entryY=0.5;entryDx=0;entryDy=0;" edge="1" parent="1" source="jeVgCDS7FtafrvL2IPcb-1" target="jeVgCDS7FtafrvL2IPcb-10">
          <mxGeometry relative="1" as="geometry" />
        </mxCell>
        <mxCell id="jeVgCDS7FtafrvL2IPcb-17" style="edgeStyle=orthogonalEdgeStyle;rounded=0;orthogonalLoop=1;jettySize=auto;html=1;exitX=0.5;exitY=1;exitDx=0;exitDy=0;entryX=0;entryY=0.5;entryDx=0;entryDy=0;" edge="1" parent="1" source="jeVgCDS7FtafrvL2IPcb-1" target="jeVgCDS7FtafrvL2IPcb-11">
          <mxGeometry relative="1" as="geometry" />
        </mxCell>
        <mxCell id="jeVgCDS7FtafrvL2IPcb-18" style="edgeStyle=orthogonalEdgeStyle;rounded=0;orthogonalLoop=1;jettySize=auto;html=1;exitX=0.5;exitY=1;exitDx=0;exitDy=0;entryX=0;entryY=0.5;entryDx=0;entryDy=0;" edge="1" parent="1" source="jeVgCDS7FtafrvL2IPcb-1" target="jeVgCDS7FtafrvL2IPcb-12">
          <mxGeometry relative="1" as="geometry" />
        </mxCell>
        <mxCell id="jeVgCDS7FtafrvL2IPcb-1" value="Main" style="rounded=0;whiteSpace=wrap;html=1;" vertex="1" parent="1">
          <mxGeometry x="40" y="140" width="120" height="60" as="geometry" />
        </mxCell>
        <mxCell id="jeVgCDS7FtafrvL2IPcb-2" value="TurnSystem" style="rounded=0;whiteSpace=wrap;html=1;" vertex="1" parent="1">
          <mxGeometry x="200" y="220" width="120" height="60" as="geometry" />
        </mxCell>
        <mxCell id="jeVgCDS7FtafrvL2IPcb-8" value="Text" style="rounded=0;whiteSpace=wrap;html=1;" vertex="1" parent="1">
          <mxGeometry x="200" y="300" width="120" height="60" as="geometry" />
        </mxCell>
        <mxCell id="jeVgCDS7FtafrvL2IPcb-19" value="signal: on_turn_button_pressed" style="edgeStyle=orthogonalEdgeStyle;rounded=0;orthogonalLoop=1;jettySize=auto;html=1;exitX=1;exitY=0.25;exitDx=0;exitDy=0;entryX=0.75;entryY=0;entryDx=0;entryDy=0;" edge="1" parent="1" source="jeVgCDS7FtafrvL2IPcb-9" target="jeVgCDS7FtafrvL2IPcb-1">
          <mxGeometry x="0.4667" y="10" relative="1" as="geometry">
            <mxPoint x="440" y="370" as="targetPoint" />
            <mxPoint as="offset" />
          </mxGeometry>
        </mxCell>
        <mxCell id="jeVgCDS7FtafrvL2IPcb-20" value="signal: on_action_button_pressed" style="edgeStyle=orthogonalEdgeStyle;rounded=0;orthogonalLoop=1;jettySize=auto;html=1;exitX=1;exitY=0.75;exitDx=0;exitDy=0;entryX=0.25;entryY=0;entryDx=0;entryDy=0;" edge="1" parent="1" source="jeVgCDS7FtafrvL2IPcb-9" target="jeVgCDS7FtafrvL2IPcb-1">
          <mxGeometry x="0.4065" y="10" relative="1" as="geometry">
            <Array as="points">
              <mxPoint x="380" y="425" />
              <mxPoint x="380" y="80" />
              <mxPoint x="70" y="80" />
            </Array>
            <mxPoint as="offset" />
          </mxGeometry>
        </mxCell>
        <mxCell id="jeVgCDS7FtafrvL2IPcb-9" value="Buttons" style="rounded=0;whiteSpace=wrap;html=1;" vertex="1" parent="1">
          <mxGeometry x="200" y="380" width="120" height="60" as="geometry" />
        </mxCell>
        <mxCell id="jeVgCDS7FtafrvL2IPcb-10" value="ItemLists" style="rounded=0;whiteSpace=wrap;html=1;" vertex="1" parent="1">
          <mxGeometry x="200" y="460" width="120" height="60" as="geometry" />
        </mxCell>
        <mxCell id="jeVgCDS7FtafrvL2IPcb-11" value="Player1" style="rounded=0;whiteSpace=wrap;html=1;" vertex="1" parent="1">
          <mxGeometry x="200" y="540" width="120" height="60" as="geometry" />
        </mxCell>
        <mxCell id="jeVgCDS7FtafrvL2IPcb-12" value="Player2" style="rounded=0;whiteSpace=wrap;html=1;" vertex="1" parent="1">
          <mxGeometry x="200" y="620" width="120" height="60" as="geometry" />
        </mxCell>
      </root>
    </mxGraphModel>
  </diagram>
  <diagram id="lVz-iqEQ-VacHHniZ9J0" name="gui">
    <mxGraphModel dx="1147" dy="685" grid="1" gridSize="10" guides="1" tooltips="1" connect="1" arrows="1" fold="1" page="1" pageScale="1" pageWidth="850" pageHeight="1100" math="0" shadow="0">
      <root>
        <mxCell id="0" />
        <mxCell id="1" parent="0" />
        <mxCell id="xOuEQvHV0Rx9NRvBvO2m-3" value="Series Collection" style="swimlane;whiteSpace=wrap;html=1;" vertex="1" parent="1">
          <mxGeometry x="40" y="40" width="460" height="200" as="geometry" />
        </mxCell>
        <mxCell id="xOuEQvHV0Rx9NRvBvO2m-5" value="" style="shape=image;verticalLabelPosition=bottom;labelBackgroundColor=default;verticalAlign=top;aspect=fixed;imageAspect=0;image=data:image/png,iVBORw0KGgoAAAANSUhEUgAAAGkAAACCCAYAAABFAeZ7AAAABHNCSVQICAgIfAhkiAAABVpJREFUeF7tnIuu1TgMRQ+I//9lwEIROVFju6nfNUJCbRI/9spOetEMn0//agVagecK/Pj9+fz93b8iKvDj8/n7+/P5GbG4rulbgYaUYEc0pIaUQIEEJf66qnFcWFdj/U5HAewDro87Hc1FozYkUTl1gjUkHV1FozYkUTl1gl1+OEimwi7EXZ7+cPlWRhXSCSAob16nDYxbo3Yduw0L79UgcZvHihvApAU6qc1y46yaqEFaEz15HgKdwDoBQtUKMU9qoeLuxlUgaQgzXAV/UgJp5Z9FtASlAmm3I8b7VWQpUaXiUPWPcStQ4p/glFAroOEMeH81diUY5FjzrM9X6zjvuDXMoDhxn8wRdRIlFEcAmEPFmRu+M3cn1FrX/MyJD3PWGLtcJ+9FIZ0UcLVmNEwJRI1fxYZ3dwTl1rLLJfHeDNIdYUZjd121E+Qk9xpLqpY1LudZ/E7iJL0z54nAsPbJ+rVOyVhrbOzZBNLT5k7Wn6zBhBpjWnGx3CaQTu+OuXCuONLuwcSzGjOBJNUMF5RUvjtxJDbiLp8oJExEzSZGc1j+nQAZ3otC8my4KiDQVBwSJpaEm7D4nptEM7fZz0mSTXiDgvwSG46ribiTIDEmomVzXBGiz1OBRDXdoCiFvsfVIGFuuldiz1aDREnbbqIU+j+uCqndxAeBzVSFBIkxUFndZF23OiRsh8CYdcNUPRHHTSBhboooSrSaTCBRTWdyk0etZpAquAkDpNmfGSRwE9YIJgDlxOrjppAyi+m5icwhUW7yFON0E2E9ncac15lDkijaOob3xnGBRO08b1HmTUDVQvUisaFcIEkUHiGGBSDo0w0S1SC1g7UhQX7vGkaPbpCggKigOHCo2iU3kSukaKAiuWeGnOK/cRg7++nu5TiE44CndXByzHPcncRx0yj4ROThjpO1V2JaA4IawjgJmpcSUirOCskDENQQwklDDI4IOwDSjokCKJSTZlA7EGPOGJd03woFnjmb5mqd9Lswx93c2BCHC+tUlCgQqPpDQqKKfjKeBczcY2hIUsdZRjAzpFAfDlcOeSIwrH2y/qoej3ehnTQE4d5RML8ClHUjpIC0wlqbqP4c/rirDoDTX0PiqOQ8pyE5A+Ckb0gclZznNCRnAJz0Ib/uqL8O4jQGc6p8joeBJAVmBrjGzAotxHG3isl1ylvmhYBkJXbWzfAqSLAZMoIKcydhbuLeJRkBYH2PsbCQuGDmJuc1lYCFgHQChNqBEHMHCt5r5KRqOh0vfSdlAoEBLA0JazzTWENKQKshNSRfBXYfDr5V3c/eTrqvmfmKV0LK9tVXFlKVow5sWxISBiibi8pCMr80lBOWcxLmImUt1cKXg4QplfGoK3fcYS7KCqgUJAwQ5q4MYyWOOwpQZheVcBIFKINTqBpLOAlrMruL0juJclEFQOkhVXfQ6C/tcYe5qIqD0kPCXFRtLKWTMBdVA5TyTqIAVTvq0kF6I6BUkChAFY+5VB8OHEAVj7k0kN4OKPxx14D+eSnlJ/g4BiofcfMdGxYS5aK3AAp73DWg72/VcE6iAH2X/46ncJAo2d90zA0tQkGiXPRGQKHuJAoQ5bDK4yH+n1kK0FsdFPK4q+yGJ725O4lyETTHmfNEhHltRNe6QrIUnwsRq8kLoNvXHSYGV9C3zHOB1IDubS9zSA3oHiCY7Xon3S1X407IsGlCQ9KAsm4MixxrzrvPoSBlEOyuwBLzze+kXdENaKeMw53UMPYwdiNhnLQrsN8X/XccqoFtJyUg2pAaUgIFEpR4+XNShp/CE2grVmIfd2JS6gVqSHraikVuSGJS6gVqSHraikX+AyCF+0AM0LENAAAAAElFTkSuQmCC;" vertex="1" parent="xOuEQvHV0Rx9NRvBvO2m-3">
          <mxGeometry x="40" y="40" width="105" height="130" as="geometry" />
        </mxCell>
        <mxCell id="xOuEQvHV0Rx9NRvBvO2m-6" value="" style="shape=image;verticalLabelPosition=bottom;labelBackgroundColor=default;verticalAlign=top;aspect=fixed;imageAspect=0;image=data:image/png,iVBORw0KGgoAAAANSUhEUgAAAGkAAACCCAYAAABFAeZ7AAAABHNCSVQICAgIfAhkiAAABeRJREFUeF7tmuuSHikIhjtbuf9b3h1+UOtYCKiIqExNKmkPHN4HtOebfF9+pQKpwLwCf/79vp/v/IqowJ/v+/n+vn8iBpcx/VYgIR1QEQkpIR2gwAEh/qVixAuLmsuxNQpwL3B53K3R3NRqQjKVc42xhLRGV1OrCclUzjXGyBcHS1fchdjyky8uv5VZCmkEEIRX7lsNTBvj6jhaBQvjyyBpk+eCQ2DWAo3E5lk4tSbLINWOZp5RoBFYI0CkWMHmSCyS3db8EkgrhMGugr8lgVb5L0X0BLUEUqsicLwW2UpUKztS/DjvBcr8FVwSqgaEnQHj1BwlGPio/dTP1D7NmDaGEpTG7swa006ShNIIAGskO2XCPWtbQtVxlc8a+7CmttHyNTJuCmkkAGoPJiwJJM1TtmGsR1BtLC1fFuNukHqEwcR6u6olyIjv2pZVLLVdzbP5naRx2rNmRmDYO7O/jtPSVm2be3aBNJvcyP6RPZxQOLfKLufbBdLo3VEGrhXHuns48bzmXCBZJaMFZeWvx45FIbb8mULiRFyZBCbH+W8JcMK4KaSdCd8KCDQ1h8SJZdFNnP2dRbLSt9vPSZZJ7AYF/i0KTquJeSeBY05Ez+S0IkRftwSSlHSCkhT6Pb8MEtdNfSHm6mWQJGmzmySF/p9fCim7SQ+CW7kUEjjmQJ3aTd5xL4fEVQjMeScsxRNx3gUS100RRYkWkwskKemTumlHrG6QbugmDtDK/NwgQTdxiXACSJ14+7wrpJPF3FlE7pCkbtopxmgRcTmN2iz3uUOyCNrbxu7C2QJJqrzdopRFIMUi5WJRUFsgWQQewYYHIMhzGyQpQamCV0MC/7tjwBy3QYIAooLSwJFityyirZCigYrUPSXkI/6PA1b2bPVqOkTTAbNxaHyUa7Z3kqabMOARkbE7RvZSYnoDghjCdBIkbyWklZ0a0g5AEEOITkIxNCK0AFh3TBRAoTqpBNUCgWtw3rL7aijwrCkaap/1WJjjrkwMxdHCGhUlCgQp/pCQpKBn5k8BU+YYGpLVcXYimBJSqBcHqkNmBIa9M/upeHaMhe4kFER7R8H6G6DUhXAEpBpWncTtz+GPu9sBaPJLSBqVNq9JSJsBaNwnJI1Km9ckpM0ANO7d3+6kj3o0QXNr8hWcUyfIXFkEtwBz7yRPlrcAuxpSWRAnA3vyxQF/QejZ1TO+3DvJ+p6YeRGBvdbxzMBo7T2+k/CT7lGxZyC3RLUed+8k6wRKeyWoHvFx7SjolTmB7eM7qSXQSIf1gG35XTF+LaS6w6J2iQbqE5BQCA2oiG9+T0ECWBpQmur2XPMcJAQlwYp0Pz0JybMLLHw9DUnqJguBLWw8DQmPPgshV9q46ofZXqEi3Ttc7E9COgUOgnsGUi+YSPfVtZB6oXDHze654yGtgBGpi6BAwkFaIbq2E6LBee5O4kBFhfM8pOhgyqIKd9xxFT8zdxKUOs9rIZ0MJTwkFHf2BaLcfzqwsJ1UCmsJDKr0NGhhIZUtbwkM7J7WZUdAagGrBa/Pcs0zAovcXcdBqoV/4Q675vdJAAv/1CB7n2fvwF5/0vrjO4lKsD66RkSHPbUdypfH2DWdxIk12mUjcLk4RueegFSKY3Ukjgo+su/K404jRHmURemYVtzPdRIlRJS7h4oNxhJSS5lA4wnpB0Yed4EqkgolOqDnj7sTAAGkLW93nDirL3HON9VpEca2QOISRxGtYfXCsfbP5SzNhYOEAVvB6oUD/iMBgnjCQqphldUmiTgCBu1Ltss4vP4dHhIlRAkBRJ2B0gOfisVjbAukslpnBZ7dH7FzavBbIFHVOyt2nZj0fAIczGE7JAwERVsN6yQ44SDVsMpOmAV3Ipgy/zCdxB1PvXfY6VBqLY6AVAZ9G4AaCPWcn4JTqgQbS0jBgFDhJCRKlWBjCSkYECqchESpEmwsIQUDQoWTkChVgo0lpGBAqHDIH2ZnP4ahHOXYuALZSePaue1MSG5SjztKSOPaue1MSG5Sjzv6D2LgF6P9K1EYAAAAAElFTkSuQmCC;" vertex="1" parent="xOuEQvHV0Rx9NRvBvO2m-3">
          <mxGeometry x="180" y="40" width="105" height="130" as="geometry" />
        </mxCell>
        <mxCell id="xOuEQvHV0Rx9NRvBvO2m-7" value="" style="shape=image;verticalLabelPosition=bottom;labelBackgroundColor=default;verticalAlign=top;aspect=fixed;imageAspect=0;image=data:image/png,iVBORw0KGgoAAAANSUhEUgAAAGkAAACCCAYAAABFAeZ7AAAABHNCSVQICAgIfAhkiAAABW9JREFUeF7tmotu5CAMRdPV/v8v79aqUBkGsAN+kblVpSo8zPU9dpJpe134ggNwYN+Br3/X9f2Nr4wOfF3X9/d1/ckoDppeHQCkAyoCkADpAAcOkPi3p7E8sHpzGLNxYPYCh9udjeeqUQFJ1U6bYIBk46tqVEBStdMmWPfFQfOo2QNxdA5eXF6dMYW0Aojk1fusgUk1WusYFSyNm0GSJj8TV4BpG7SizbNwWk/MILUH7VwXg1ZgrQDhtFLMFS1c3NG8CSQLY0pX0U/OIKvzaxM9QZlAGlVEGW9N1jJVKw6nv8x7gVJ/BeeMagGVzqDx3lzPMDqjPae97u2TjEk11KAkcXfWqHYSZ5TEAFrDxakTvrN2ZFSrq76WxKc1bYzRWSvjqpBWBPT2lIQ5g7j5Xmwau2OoVMvoLI1xN0h3jCmJ3e2qkSErZ7extLS0cSXX6s8kyaF31uwYTHt39rc6NWO1sWfXLpB2k1vZv7JnZlSZs4o7O9sF0uqzoxYuNUe7e2bmec25QNJKRgpK67w7cTQKcXSeKqSZiZZJlORm548MOGFcFVJkwk8FRJ6qQ5qZpdFNs/iRRWJ5ttvnJM0kokHR+RoFJ/VEvZPo4JmJnslJTci+zgQSlzRAcQ69zptBmnXTPYlYbQaJsxbdxDn0O28KCd0kBzFbaQqJDp6BOrWbvHWbQ5pVCM15J8zpyTjvAmnWTRlNyabJBRKX9EndFKHVDdITumkGyDI/N0jUTbNEZgZwnfj0eVdIJ5sZWUTukLhuijRjtYhmOa3GrPe5Q9IQ7R0junBCIHGVF21KXQScFi4XjYIKgaQhPEMMD0CUZxgkLkGugq0h0fnRGkqOYZBIQFZQEjicds0iCoWUDVSm7qkhH/E/DqWyd6tX0iGSDtjVITmjXhPeSZJuKoJXTC7dsbK3Z6Y3INKQppMoeS0jteK0kCIAkYYUnVTMkJgwAqDdMVkApeqkGtQIRFlT5jW7r4VC15Ki6e3THktzu6sTK+ZIYa2akgUCpz8lJE70zvwpYOocU0PSup2dCKaGlOrFodchOwbT3p39PT0RY6k7qRgifUbR+idAaQvhCEgtrDaJp1+nv909HYAkP0CSuBS8BpCCAUiOBySJS8FrACkYgOT4Y97uer8ieuLrdg/aEZ3UA9RL5qlj6SF9OiAqvNSQAOjn3pAWEgD93rxTQpIA+pSXhpS3OwB6f/1J1UkA9A4oVScBUB9QGkgANAaUBtJc4jP/kMflXM+HP5O4Lvqkt7gRuFBIADTC8joeBgmAZIDCnkkcILn8z1jp3kkSQHgOvRZfur8nWQPqFYn1mbv97tpJPYPqBLKbtWv26n5XSKsiP32f2+1u1kXooHkZopPm/qSYDYeELuLrIBwSLxErXCCNnkfoIlkBukCSScGqkQOANHIm0TggJYIxkhIGCc+jEZL3cXNIo5eGdykYGTlgDml0MMblDphCQhfJQcxWmkKaHYw5uQMhkPDSIAdEK0Mg3ZOI1e6Q0EX3i84dEl4m7kNy+6NfLa2Ayt5Vo4Ly1h0CqQCrTfBOfFTPIzCj9R7joZB63VXGPKFlBFN7YwqJjF41oLdvF1wvpkcn7J5hConE7YBqkzvV5DaPu9fmkAoo+nm6ybudfBdOWe8CqRxWJ3kKsCgwNVBXSPXBbfIZoLWaVitfe18YpDaRnkFe4Hpnt/oir9NA6plgYZ4X+F4+q2PuvxZaFfrJ+wDpAPqABEgHOHCARHQSIB3gwAES0UmAdIADB0hM/WHWwj+LD8gWOuuYuN1ZO6wQH5AUTLQOAUjWDivEByQFE61DAJK1wwrxu293J/46X8GLtCHQSWnR/AoDJEA6wIEDJKKTDoD0H84g9UrPyUbOAAAAAElFTkSuQmCC;" vertex="1" parent="xOuEQvHV0Rx9NRvBvO2m-3">
          <mxGeometry x="320" y="40" width="105" height="130" as="geometry" />
        </mxCell>
        <mxCell id="xOuEQvHV0Rx9NRvBvO2m-4" value="Quartet Collection" style="swimlane;whiteSpace=wrap;html=1;" vertex="1" parent="1">
          <mxGeometry x="40" y="280" width="460" height="200" as="geometry" />
        </mxCell>
        <mxCell id="xOuEQvHV0Rx9NRvBvO2m-8" value="" style="shape=image;verticalLabelPosition=bottom;labelBackgroundColor=default;verticalAlign=top;aspect=fixed;imageAspect=0;image=data:image/png,iVBORw0KGgoAAAANSUhEUgAAAGkAAACCCAYAAABFAeZ7AAAABHNCSVQICAgIfAhkiAAABXxJREFUeF7tmuuOWCsIhXebvv8rn5Yf5jhEBRUUkEmTZnuF9bHUafp9+ZMKpAL7Cvz67/v+/ckfiwr8+r5/f77vt8XgMqafCiQkBxWRkBKSAwUchPinFWO5sFp92aajwOgBl8edjuaiqyYkUTl1FktIOrqKrpqQROXUWaz5cJDcanQh9vbJh8tPZVQhrQCC8Op52sC4MWrH0StYaFeDxE1+FFwBJi3QSmwnCwdrogYJb7TzXQRagbUChIoV1lyJhVq3168CSUOY4ir4mxJIa/9axJOgVCD1KqK0Y5GlRJVah4q/9J8CJf4Ep4TCgIozoL3V1xIM9sD74O/WPE4bN4YaFGfdnTGiTqKE4ggAY6h16oRnxvaEwnHV35z1YQxeo7fXSrsopJUAWnNKwpRAVH9rbWibEZQbS28vifZjkGaEKYnNuqonyMreeC2pWPC6nG/xO4mz6cyYHYFh7s58HKfkWnjt0fcRSLvJrcxfmTMSqvRprTva+wik1bujDpwrjrR7RuKd6jsCSSoZLiip/WbWkSjE3n6ikEYiaiZRkhvt3xPAQ7sopJsJRwUEmopDGokl4abR+jeLRHPvY78nSSZxGxTsL1FwXE3EnQQbj0Q8mRxXBOvjVCBRSScoSqGf/WqQRm6aCzFHq0GipE03UQr9368KKd3EBzEaqQoJNh6B8uqm03GrQxpVCPSdTpiKx2L/EUgjN1kUxVpMRyBRSXty041Yj0GK4KYRIM38jkECN40SGQlAOTF6/1FInsW8WUTHIVFuuinGahGNclpds553HJJE0KfXuF04VyBRlXdblLoIqFioXCQK6gokicAtrHECEOR5DRKVIFXB2pBg/9sxlByvQYIArILiwKFilyyiq5CsgbLknhqyi//jUCp7t3o5DuE4YDcOzh71mOtO4ripBLwicnHHytyWmKcBQQxmnATJSwkptQ6GdAMQxGDCSUUMjgg9ANKOsQLIlJNqUD0QZUzpl3QfhgLfnKJpzZNuM3Pc1YkVcbiwVkWxAoGK3yQkKuidfi9g6hxNQ5I6zjyCqSGZeji0HLIjMMzdmd+K50abaScVQbh3FIyPAAUXggtIGBZOIvq3+eMuOgBOfgmJo9LlMQnpMgDO9q7uJE5CK2NavzRbeoCkk1aoHp5jwkm3Krm172H9Wds96yQvgICiWUiaImquzbLG5CCzkCbzYA/3Bsi0k9iqTwzkArL0soP0TDwcJnReHsoBZA1OSdbEcWdBHAsx9CrQBKRecFLtlIssAwINwkPyDig8pAiAwkOSOi5vrxP2uIviIiiQcE9wCg4kbf2hgJ0bykkRAYVxEgcOrk5P3+6dNAPI2zFXCsk0JAoA1V+7xSsg18cdF5BnOC6c1Ls3XgLk0kkcQBHcUxeomTuJEhbgvAjIhZM4YErVUaB7x6f1djNO2hUqKiDQxQykGcdgoJEBmYKEhed+RwcEOrj9B9YX4JRCdQfpJTiuIL0Ipj7uzTwcuHfQi+PMQBq5ZeflFwGqGUgRxNTKwQ2kl91kCtLoyNOqUg/rmoJECfaqm1xBAogvgnIH6UVQLiFRx2K0freQXjr23EJ66dhzDekVUO4hvQDKBSTOL7lwR0W9p1xAArdwQBVXRYPlBtIMqGhHoCtIr4JyB+lFUC4hFVCv3FPu/iMKAKp/CijOY6EewwWM97vx7dZJWKxZ0T092d07CbuK46h6Dh4/CxsXi8a3OUi7IsF8LPyMcBaPxDDHHXbULuwZsNpjzTlJMuEa1I67JGNaWSukk1pCADCv7grtpB6sut2Dw55xUgsYtHlw2HNOGsHq9d1uf95JtwFw9k9IHJUuj0lIlwFwtm/eSR5ePJzkooxJJzkgmZASkgMFHISYTnIA6S+fHBVd3iA3QwAAAABJRU5ErkJggg==;" vertex="1" parent="xOuEQvHV0Rx9NRvBvO2m-4">
          <mxGeometry x="40" y="40" width="105" height="130" as="geometry" />
        </mxCell>
        <mxCell id="xOuEQvHV0Rx9NRvBvO2m-9" value="" style="shape=image;verticalLabelPosition=bottom;labelBackgroundColor=default;verticalAlign=top;aspect=fixed;imageAspect=0;image=data:image/png,iVBORw0KGgoAAAANSUhEUgAAAGkAAACCCAYAAABFAeZ7AAAABHNCSVQICAgIfAhkiAAABJ5JREFUeF7tmtuS3CAMRCep/P8vJ8tUXMUwYIMuQIvep9hGEupjCa2zrxd/qAAV0Cvw68fFX70benBSIPF5/XZyTreGChCSoZhergjJS1lDv4RkKKaXqz8Nx+8Diz9TFWgOcKykqRxkwQhJpttUK0KaKrcsWOtMknnbw6rZ23+2B3nWRoJ0B+d6fa41ULCitLseQHmdj65f2iMiQJIKLrWbDgwdklZorf0UYMiQrAS28uMGDBmSmyi7OSak3YhU9oMKybpFWfurSC2/hQpJnjGgJSEBQCMkQgJQAGCLrCRCclPA+gOptT/TxFlJpnL6OCMkH11NvSJDsmpRVn5MweTOkCGlPLQCa+3dwESCpAEFASgliF5J1ws3Kvjo+ikV0woS6W8cLuHvPpZCwbmg7QKpJexqUbfY12pILRGul+h6PhvWVvtaeSY9CZG36JG1rdbee38k1sja3vhf61ZBkiQnsflK+OGGJIbE5mEbn49XQNIkpbF9EkbjW2P7tK/pI7hFMhY+SmEsfFr4KPf1vl5RSdWN8GZbgZnTneWbJvUltWsr+Pkk+TefRFlJvfIvXEdIC8XvDU1IvUotXEdIC8XvDU1IvUotXEdIC8XvDT1zBE+jqdUIfDfm3sVo2d3Z9GqZ1rX8j/j4WstK+pJkvxuzIVm8aRY+ShIWPi18lPt6X8+GlGJqktHYVgXIbmp8a2yf9rUEkhSUqxD/lZLEkNg8gskXrKikK/5IciNrhwSoLB6JNbK2Eqrv1szprrajK8nWdDVFhMrGttrXakiSqqpo6nZr1UvykdDKduembDTHhARAlJAICUABgC2ykggJQAGALbKSCAlAAYAtspIICUABgC3u8lnIUqotPuVYJsR2Z6mmky9CchLW0i0hWarp5IuQnIS1dBtxcJDoU/tPx20GEFaSBOlkG0Ky+4NNN3SnQ6q1OTexpY53PZNq4m1zRkjFltrtCkmaT69d7SXotZ2+7jRIvXC2qtqTziRIQKlsT4HUC2h6K+sJeAKkEUBbtbkLYPQzqRfQlnCiQwoB54IUsd2FAhRxcAgHKBqkkIB2hdQrdj699tpsPSC0xvEI010PIEg4UQaH8IB2bXetqi/vHwEoJY3S7vJ21QMn5Qbd4vI3Eu33pOMAobW7IwEhQToWEBKkvEW3/h3mDCoTRBkcyn3n12HhXEmiDQ4lrPCA0NvdEYDQIZVVFfYatd0dU0WolXQUIFRIYdtaKzHEdtf7i20rZ7j7iJCSyAnUMbDQf5nNQYU9q9Ah5a2rrKww0CJBKs+aMNB2g1QKWwqvua75hqg2lMEhiekhKMQAslslPVVKDqpWGU/2reelL48XohX78T4apDyhUshS6MfkbxZcvsoYNyZ+j5AhlaqUglpCK2NNvY4EqRSuhJaeQ4JDGRxKANJrrwFEup8uu8iVdCdAWWVbV9hukJJ4KwQrod0Bnv5sN0hJgK0Fm07oJ+BpZ9IKjdUxCUktob8DQvLXWB2BkNQS+jsgJH+N1REISS2hvwNC8tdYHYGQ1BL6OyAkf43VEVpfHFZ8mlEnE9UBKwmALCEREoACAFtkJQFA+gepnFpCf4YYUAAAAABJRU5ErkJggg==;" vertex="1" parent="xOuEQvHV0Rx9NRvBvO2m-4">
          <mxGeometry x="180" y="40" width="105" height="130" as="geometry" />
        </mxCell>
        <mxCell id="xOuEQvHV0Rx9NRvBvO2m-10" value="" style="shape=image;verticalLabelPosition=bottom;labelBackgroundColor=default;verticalAlign=top;aspect=fixed;imageAspect=0;image=data:image/png,iVBORw0KGgoAAAANSUhEUgAAAGkAAACCCAYAAABFAeZ7AAAABHNCSVQICAgIfAhkiAAABTlJREFUeF7tm92SHCEIhXtTef9XTsKFFYdRoRWVg27txbY/COcD2pmqfZ77cxW4Cowr8PPnef793h+PCvw8z7/f5/nl0bnr06cCFxJARlxIFxKAAgAu/i75mF5Ypbk7NkeB1gXutrs5mptavZBM5ZxjrNju5hxla7XWHiK2ashKqgGiNKC51rxtqqyxBglJI00kUGEhRaoqOEiRKkTTEWgNFKReQL37tCLOXgcFaUQM5AtFGEgRr94pKWEgaVqWBpTGzkjFztgLAaklLIHJ4UQE5R5SC1Ata6OBcg2pB1ACpwFVg+xt3CUk7U1MAiHNjyTBSpDuIGmFkwBoK0p73koo/CxXkLSCaQHxYFGfXUHSiNgDSNqjTQ6NfzPWuIGkEUoSuyWQtFdzfsv+zDk3kFpBksCSyK39ac7ChuYc6zUuIHnJYi9+cMguIHGn8mfr7JfseQS1HVJLFEnQFtzWnGS35VPL7qy5rZC8iZGL7Mm3rZBmZZ7GrlRNZMMLqG2QJAE0ImpgtNZozpD8bNm3mtsGySqAUTsaUKNnjO7fAknKztXCSedJ/o5CkPYvhyQFLAkmBdQ7L50r+d17rmbfckgtpyShWnst5qTzd4FyBclC6Nk2doByBWmHAByqVE20frWfriBxwXY9a0Ct9M0dJMrS1ZlaElwCtdLH5ZCk4JNgK0UoQaIxyddVPi6HpAn+gvpMmy2Q0EDVKm3V+DZIF5Qe8VZICZTU+2ndqv6fS+flEgP1j80JlAaqPk+/V+5IiG8v/o9sr6TkyhvhZ4nopXI4MDeQyDECpYVlDarH3ht/ufBvnl1BeltVPcJycXqqZxWc5KtLSKmquKCl5xFQb/euhuMe0htQJXiWY7vgpBjc3+5IICnj07z1+0xrzzIhSrbctrvcWa1YGpjSmnSu9sySqNZjEJAoaK1oWggtIbVntWxYzsFAGgWlhecNEMUNBekNqDyTkQFBQtKC0oJJMD1WUPLN/e0ur4j8bxJVAiHNa4HXfFg1DtfuOKgRoTxXTx4XNCSUShhJJNoLD6kXFEoVhYH0NlORAIWChCb8m8SCvd29CTKtRQUZ4p2kgYAKiGILV0nIMGrdIVQl1YJEH7+QAAiGa3c9mpe+PvLUNm8l9VBdvOd4SKUqWsxAPO5oSAiAiKDLd1JJPE/vCDH1jRe4hGQc45e5UhJ8LXI0cBQkLRxvVXvMOwkVEBX0EZC0gBx1uA9XwkN6A8hbm0ukQr+TtIC8wgkNKQqcBClcu4sGKNzFISKgUJCiAnIJSSt2fkfV7vF+Qfi4d2cP8Lc7DSBUOCEuDicActnuaiXPx08BRHFDtLu8XWngUGDoLS5PSqjPSScCgmp3pwKCgXQyIBhIeX+u/R3pHcRjhLg4cKfz58hwUpxQFwcO6wRA0O3uFEDQkHhVRX6GbHcnVRFkJZ0GCBJS5LZWiw2u3Wk/2NYCRhyHg0QiE6iTYEF/mM1BRX5XQUPKWxevrEjQwkDi75pI0FxB4sJy4UeeS7ZRqg3i4kBizhAU5QLiqpKkSslBlSpD2l+b57ZmJETtbM04FKQ8IC4kF1oTfG1NssXPqK2fPQ4LiQvDBbWExs9a/RwGEheOQ6N5VHAQFwcOoPd51gWk1x/tvrCV1BKAV5n3CnMFicTbIRiH1gK8Y84VJBLAu2A7IB31TtohsMWZF5KFipNtXEiTBbYwfyFZqDjZxoU0WWAL8xeShYqTbVxIkwW2MH8hWag42caFNFlgC/PFbxx2fDVjEUxUG7eSAMheSBcSgAIALt5KAoD0F7tL/0BT8o3TAAAAAElFTkSuQmCC;" vertex="1" parent="xOuEQvHV0Rx9NRvBvO2m-4">
          <mxGeometry x="320" y="40" width="105" height="130" as="geometry" />
        </mxCell>
        <mxCell id="xOuEQvHV0Rx9NRvBvO2m-11" value="&lt;h1 style=&quot;margin-top: 0px;&quot;&gt;Notes&lt;/h1&gt;&lt;p&gt;- Look into a CollectionBox item or equivalent where other GUI items, in this case with cards can be put into.&lt;/p&gt;&lt;p&gt;- Deck and heap should also probably be a CollectionBox or equivalent.&lt;/p&gt;&lt;p&gt;- Add CollentionBox for the Player&#39;s hand.&lt;/p&gt;&lt;p&gt;- When it is possible to lay cards, the player should have the action to add a card from his/her hand to a collection on the table.&lt;/p&gt;&lt;p&gt;- When collection is full the contents should be placed under the heap collection. (Probably won&#39;t be shown in the GUI).&lt;/p&gt;" style="text;html=1;whiteSpace=wrap;overflow=hidden;rounded=0;fontSize=16;" vertex="1" parent="1">
          <mxGeometry x="40" y="520" width="460" height="360" as="geometry" />
        </mxCell>
        <mxCell id="WuwRjhPx5mhzKt21s7wh-1" value="Found something like the CollectionBox, namely HBoxContainer, when you add child controls to it they will be placed inside the container. Programmatically this is done via add_child()." style="text;html=1;align=center;verticalAlign=middle;whiteSpace=wrap;rounded=0;fontSize=16;" vertex="1" parent="1">
          <mxGeometry x="40" y="940" width="760" height="40" as="geometry" />
        </mxCell>
      </root>
    </mxGraphModel>
  </diagram>
</mxfile>
